<svg xmlns="http://www.w3.org/2000/svg" xmlns:xlink="http://www.w3.org/1999/xlink" xmlns:s="https://github.com/nturley/netlistsvg" width="910" height="438"><style>svg {
  stroke:#000;
  fill:none;
}
text {
  fill:#000;
  stroke:none;
  font-size:10px;
  font-weight: bold;
  font-family: "Courier New", monospace;
}
line {
    stroke-linecap: round;
}
.nodelabel {
  text-anchor: middle;
}
.inputPortLabel {
  text-anchor: end;
}
.splitjoinBody {
  fill:#000;
}</style><g s:type="dff-bus" transform="translate(759,382)" s:width="34" s:height="44" id="cell_:28"><s:alias val="$dff-bus"/><s:alias val="$_DFF_-bus"/><s:alias val="$_DFF_P_-bus"/><s:alias val="adff-bus"/><s:alias val="$adff-bus"/><s:alias val="$_DFF_-bus"/><s:alias val="$_DFF_P_-bus"/><s:alias val="sdff-bus"/><s:alias val="$sdff-bus"/><s:alias val="$_DFF_-bus"/><s:alias val="$_DFF_P_-bus"/><rect width="30" height="40" x="0" y="0" class="cell_:28"/><path d="M0,35 L5,30 L0,25" class="cell_:28"/><path d="M30,2 L32,2 L32,42 L2,42 L2,40" class="cell_:28"/><path d="M32,4 L34,4 L34,44 L4,44 L4,42" class="cell_:28"/><g s:x="35" s:y="10" s:pid="Q"/><g s:x="-1" s:y="30" s:pid="CLK"/><g s:x="-1" s:y="30" s:pid="C"/><g s:x="-1" s:y="10" s:pid="D"/><g s:x="17" s:y="44" s:pid="ARST"/><g s:x="17" s:y="44" s:pid="SRST"/></g><g s:type="generic" transform="translate(216,129.5)" s:width="30" s:height="40" id="cell_add1"><text x="15" y="-4" class="nodelabel cell_add1" s:attribute="ref">oneb_adder</text><rect width="30" height="80" s:generic="body" class="cell_add1"/><g transform="translate(0,10)" s:x="0" s:y="10" s:pid="in0" id="port_add1~a"><text x="-3" y="-4" class="inputPortLabel cell_add1">a</text></g><g transform="translate(0,30)" s:x="0" s:y="10" s:pid="in0" id="port_add1~b"><text x="-3" y="-4" class="inputPortLabel cell_add1">b</text></g><g transform="translate(0,50)" s:x="0" s:y="10" s:pid="in0" id="port_add1~c"><text x="-3" y="-4" class="inputPortLabel cell_add1">c</text></g><g transform="translate(0,70)" s:x="0" s:y="10" s:pid="in0" id="port_add1~clk"><text x="-3" y="-4" class="inputPortLabel cell_add1">clk</text></g><g transform="translate(30,10)" s:x="30" s:y="10" s:pid="out0" id="port_add1~carry"><text x="5" y="-4" style="fill:#000; stroke:none" class="cell_add1">carry</text></g><g transform="translate(30,30)" s:x="30" s:y="10" s:pid="out0" id="port_add1~o"><text x="5" y="-4" style="fill:#000; stroke:none" class="cell_add1">o</text></g></g><g s:type="generic" transform="translate(337,192)" s:width="30" s:height="40" id="cell_add2"><text x="15" y="-4" class="nodelabel cell_add2" s:attribute="ref">oneb_adder</text><rect width="30" height="80" s:generic="body" class="cell_add2"/><g transform="translate(0,10)" s:x="0" s:y="10" s:pid="in0" id="port_add2~a"><text x="-3" y="-4" class="inputPortLabel cell_add2">a</text></g><g transform="translate(0,30)" s:x="0" s:y="10" s:pid="in0" id="port_add2~b"><text x="-3" y="-4" class="inputPortLabel cell_add2">b</text></g><g transform="translate(0,50)" s:x="0" s:y="10" s:pid="in0" id="port_add2~c"><text x="-3" y="-4" class="inputPortLabel cell_add2">c</text></g><g transform="translate(0,70)" s:x="0" s:y="10" s:pid="in0" id="port_add2~clk"><text x="-3" y="-4" class="inputPortLabel cell_add2">clk</text></g><g transform="translate(30,10)" s:x="30" s:y="10" s:pid="out0" id="port_add2~carry"><text x="5" y="-4" style="fill:#000; stroke:none" class="cell_add2">carry</text></g><g transform="translate(30,30)" s:x="30" s:y="10" s:pid="out0" id="port_add2~o"><text x="5" y="-4" style="fill:#000; stroke:none" class="cell_add2">o</text></g></g><g s:type="generic" transform="translate(458,254.5)" s:width="30" s:height="40" id="cell_add3"><text x="15" y="-4" class="nodelabel cell_add3" s:attribute="ref">oneb_adder</text><rect width="30" height="80" s:generic="body" class="cell_add3"/><g transform="translate(0,10)" s:x="0" s:y="10" s:pid="in0" id="port_add3~a"><text x="-3" y="-4" class="inputPortLabel cell_add3">a</text></g><g transform="translate(0,30)" s:x="0" s:y="10" s:pid="in0" id="port_add3~b"><text x="-3" y="-4" class="inputPortLabel cell_add3">b</text></g><g transform="translate(0,50)" s:x="0" s:y="10" s:pid="in0" id="port_add3~c"><text x="-3" y="-4" class="inputPortLabel cell_add3">c</text></g><g transform="translate(0,70)" s:x="0" s:y="10" s:pid="in0" id="port_add3~clk"><text x="-3" y="-4" class="inputPortLabel cell_add3">clk</text></g><g transform="translate(30,10)" s:x="30" s:y="10" s:pid="out0" id="port_add3~carry"><text x="5" y="-4" style="fill:#000; stroke:none" class="cell_add3">carry</text></g><g transform="translate(30,30)" s:x="30" s:y="10" s:pid="out0" id="port_add3~o"><text x="5" y="-4" style="fill:#000; stroke:none" class="cell_add3">o</text></g></g><g s:type="generic" transform="translate(574,317)" s:width="30" s:height="40" id="cell_add4"><text x="15" y="-4" class="nodelabel cell_add4" s:attribute="ref">oneb_adder</text><rect width="30" height="80" s:generic="body" class="cell_add4"/><g transform="translate(0,10)" s:x="0" s:y="10" s:pid="in0" id="port_add4~a"><text x="-3" y="-4" class="inputPortLabel cell_add4">a</text></g><g transform="translate(0,30)" s:x="0" s:y="10" s:pid="in0" id="port_add4~b"><text x="-3" y="-4" class="inputPortLabel cell_add4">b</text></g><g transform="translate(0,50)" s:x="0" s:y="10" s:pid="in0" id="port_add4~c"><text x="-3" y="-4" class="inputPortLabel cell_add4">c</text></g><g transform="translate(0,70)" s:x="0" s:y="10" s:pid="in0" id="port_add4~clk"><text x="-3" y="-4" class="inputPortLabel cell_add4">clk</text></g><g transform="translate(30,10)" s:x="30" s:y="10" s:pid="out0" id="port_add4~carry"><text x="5" y="-4" style="fill:#000; stroke:none" class="cell_add4">carry</text></g><g transform="translate(30,30)" s:x="30" s:y="10" s:pid="out0" id="port_add4~o"><text x="5" y="-4" style="fill:#000; stroke:none" class="cell_add4">o</text></g></g><g s:type="inputExt" transform="translate(116,402)" s:width="30" s:height="20" id="cell_clk"><text x="15" y="-4" class="nodelabel cell_clk" s:attribute="ref">clk</text><s:alias val="$_inputExt_"/><path d="M0,0 L0,20 L15,20 L30,10 L15,0 Z" class="cell_clk"/><g s:x="30" s:y="10" s:pid="Y"/></g><g s:type="inputExt" transform="translate(12,55.5)" s:width="30" s:height="20" id="cell_a"><text x="15" y="-4" class="nodelabel cell_a" s:attribute="ref">a</text><s:alias val="$_inputExt_"/><path d="M0,0 L0,20 L15,20 L30,10 L15,0 Z" class="cell_a"/><g s:x="30" s:y="10" s:pid="Y"/></g><g s:type="inputExt" transform="translate(12,287.5)" s:width="30" s:height="20" id="cell_b"><text x="15" y="-4" class="nodelabel cell_b" s:attribute="ref">b</text><s:alias val="$_inputExt_"/><path d="M0,0 L0,20 L15,20 L30,10 L15,0 Z" class="cell_b"/><g s:x="30" s:y="10" s:pid="Y"/></g><g s:type="outputExt" transform="translate(868,382)" s:width="30" s:height="20" id="cell_o"><text x="15" y="-4" class="nodelabel cell_o" s:attribute="ref">o</text><s:alias val="$_outputExt_"/><path d="M30,0 L30,20 L15,20 L0,10 L15,0 Z" class="cell_o"/><g s:x="0" s:y="10" s:pid="A"/></g><g s:type="constant" transform="translate(116,170)" s:width="30" s:height="20" id="cell_0"><text x="15" y="-4" class="nodelabel cell_0" s:attribute="ref">0</text><s:alias val="$_constant_"/><rect width="30" height="20" class="cell_0"/><g s:x="31" s:y="10" s:pid="Y"/></g><g s:type="join" transform="translate(678,12)" s:width="4" s:height="40" id="cell_$join$,15,16,17,18,"><rect width="5" height="80" class="splitjoinBody" s:generic="body"/><s:alias val="$_join_"/><g s:x="5" s:y="20" s:pid="out"/><g transform="translate(0,10)" s:x="0" s:y="10" s:pid="in0"><text x="-3" y="-4" class="inputPortLabel">0</text></g><g transform="translate(0,30)" s:x="0" s:y="10" s:pid="in0"><text x="-3" y="-4" class="inputPortLabel">1</text></g><g transform="translate(0,50)" s:x="0" s:y="10" s:pid="in0"><text x="-3" y="-4" class="inputPortLabel">2</text></g><g transform="translate(0,70)" s:x="0" s:y="10" s:pid="in0"><text x="-3" y="-4" class="inputPortLabel">3</text></g></g><g s:type="split" transform="translate(132.6,45)" s:width="5" s:height="40" id="cell_$split$,3,4,5,6,"><rect width="5" height="80" class="splitjoinBody" s:generic="body"/><s:alias val="$_split_"/><g s:x="0" s:y="20" s:pid="in"/><g transform="translate(4,10)" s:x="4" s:y="10" s:pid="out0"><text x="5" y="-4">0</text></g><g transform="translate(4,30)" s:x="4" s:y="10" s:pid="out0"><text x="5" y="-4">1</text></g><g transform="translate(4,50)" s:x="4" s:y="10" s:pid="out0"><text x="5" y="-4">2</text></g><g transform="translate(4,70)" s:x="4" s:y="10" s:pid="out0"><text x="5" y="-4">3</text></g></g><g s:type="split" transform="translate(132.6,277)" s:width="5" s:height="40" id="cell_$split$,7,8,9,10,"><rect width="5" height="80" class="splitjoinBody" s:generic="body"/><s:alias val="$_split_"/><g s:x="0" s:y="20" s:pid="in"/><g transform="translate(4,10)" s:x="4" s:y="10" s:pid="out0"><text x="5" y="-4">0</text></g><g transform="translate(4,30)" s:x="4" s:y="10" s:pid="out0"><text x="5" y="-4">1</text></g><g transform="translate(4,50)" s:x="4" s:y="10" s:pid="out0"><text x="5" y="-4">2</text></g><g transform="translate(4,70)" s:x="4" s:y="10" s:pid="out0"><text x="5" y="-4">3</text></g></g><line x1="146" x2="758" y1="412" y2="412" class="net_2 width_1" style="stroke-width: 1"/><line x1="146" x2="177" y1="412" y2="412" class="net_2 width_1" style="stroke-width: 1"/><line x1="177" x2="177" y1="412" y2="200" class="net_2 width_1" style="stroke-width: 1"/><circle cx="177" cy="412" r="2" style="fill:#000" class="net_2 width_1"/><line x1="177" x2="216" y1="200" y2="200" class="net_2 width_1" style="stroke-width: 1"/><line x1="146" x2="177" y1="412" y2="412" class="net_2 width_1" style="stroke-width: 1"/><line x1="177" x2="177" y1="412" y2="274" class="net_2 width_1" style="stroke-width: 1"/><line x1="177" x2="288" y1="274" y2="274" class="net_2 width_1" style="stroke-width: 1"/><line x1="288" x2="288" y1="274" y2="262.5" class="net_2 width_1" style="stroke-width: 1"/><circle cx="177" cy="274" r="2" style="fill:#000" class="net_2 width_1"/><line x1="288" x2="337" y1="262.5" y2="262.5" class="net_2 width_1" style="stroke-width: 1"/><line x1="146" x2="177" y1="412" y2="412" class="net_2 width_1" style="stroke-width: 1"/><line x1="177" x2="177" y1="412" y2="336.5" class="net_2 width_1" style="stroke-width: 1"/><line x1="177" x2="409" y1="336.5" y2="336.5" class="net_2 width_1" style="stroke-width: 1"/><line x1="409" x2="409" y1="336.5" y2="325" class="net_2 width_1" style="stroke-width: 1"/><circle cx="177" cy="336.5" r="2" style="fill:#000" class="net_2 width_1"/><line x1="409" x2="458" y1="325" y2="325" class="net_2 width_1" style="stroke-width: 1"/><line x1="146" x2="530" y1="412" y2="412" class="net_2 width_1" style="stroke-width: 1"/><line x1="530" x2="530" y1="412" y2="387.5" class="net_2 width_1" style="stroke-width: 1"/><circle cx="530" cy="412" r="2" style="fill:#000" class="net_2 width_1"/><line x1="530" x2="574" y1="387.5" y2="387.5" class="net_2 width_1" style="stroke-width: 1"/><line x1="684" x2="733" y1="32.5" y2="32.5" class="net_15,16,17,18 width_4" style="stroke-width: 2"/><line x1="733" x2="733" y1="32.5" y2="392" class="net_15,16,17,18 width_4" style="stroke-width: 2"/><line x1="733" x2="758" y1="392" y2="392" class="net_15,16,17,18 width_4" style="stroke-width: 2"/><line x1="137.6" x2="157" y1="55.5" y2="55.5" class="net_3 width_1" style="stroke-width: 1"/><line x1="157" x2="157" y1="55.5" y2="140" class="net_3 width_1" style="stroke-width: 1"/><line x1="157" x2="216" y1="140" y2="140" class="net_3 width_1" style="stroke-width: 1"/><line x1="137.6" x2="157" y1="287.5" y2="287.5" class="net_7 width_1" style="stroke-width: 1"/><line x1="157" x2="157" y1="287.5" y2="160" class="net_7 width_1" style="stroke-width: 1"/><line x1="157" x2="216" y1="160" y2="160" class="net_7 width_1" style="stroke-width: 1"/><line x1="147" x2="216" y1="180" y2="180" class="net_23 width_1" style="stroke-width: 1"/><line x1="137.6" x2="308" y1="75.5" y2="75.5" class="net_4 width_1" style="stroke-width: 1"/><line x1="308" x2="308" y1="75.5" y2="202.5" class="net_4 width_1" style="stroke-width: 1"/><line x1="308" x2="337" y1="202.5" y2="202.5" class="net_4 width_1" style="stroke-width: 1"/><line x1="137.6" x2="167" y1="307.5" y2="307.5" class="net_8 width_1" style="stroke-width: 1"/><line x1="167" x2="167" y1="307.5" y2="222.5" class="net_8 width_1" style="stroke-width: 1"/><line x1="167" x2="337" y1="222.5" y2="222.5" class="net_8 width_1" style="stroke-width: 1"/><line x1="247" x2="288" y1="140" y2="140" class="net_19 width_1" style="stroke-width: 1"/><line x1="288" x2="288" y1="140" y2="242.5" class="net_19 width_1" style="stroke-width: 1"/><line x1="288" x2="337" y1="242.5" y2="242.5" class="net_19 width_1" style="stroke-width: 1"/><line x1="137.6" x2="177" y1="95.5" y2="95.5" class="net_5 width_1" style="stroke-width: 1"/><line x1="177" x2="177" y1="95.5" y2="64.5" class="net_5 width_1" style="stroke-width: 1"/><line x1="177" x2="429" y1="64.5" y2="64.5" class="net_5 width_1" style="stroke-width: 1"/><line x1="429" x2="429" y1="64.5" y2="265" class="net_5 width_1" style="stroke-width: 1"/><line x1="429" x2="458" y1="265" y2="265" class="net_5 width_1" style="stroke-width: 1"/><line x1="137.6" x2="187" y1="327.5" y2="327.5" class="net_9 width_1" style="stroke-width: 1"/><line x1="187" x2="187" y1="327.5" y2="285" class="net_9 width_1" style="stroke-width: 1"/><line x1="187" x2="458" y1="285" y2="285" class="net_9 width_1" style="stroke-width: 1"/><line x1="368" x2="409" y1="202.5" y2="202.5" class="net_20 width_1" style="stroke-width: 1"/><line x1="409" x2="409" y1="202.5" y2="305" class="net_20 width_1" style="stroke-width: 1"/><line x1="409" x2="458" y1="305" y2="305" class="net_20 width_1" style="stroke-width: 1"/><line x1="137.6" x2="167" y1="115.5" y2="115.5" class="net_6 width_1" style="stroke-width: 1"/><line x1="167" x2="167" y1="115.5" y2="53.5" class="net_6 width_1" style="stroke-width: 1"/><line x1="167" x2="540" y1="53.5" y2="53.5" class="net_6 width_1" style="stroke-width: 1"/><line x1="540" x2="540" y1="53.5" y2="327.5" class="net_6 width_1" style="stroke-width: 1"/><line x1="540" x2="574" y1="327.5" y2="327.5" class="net_6 width_1" style="stroke-width: 1"/><line x1="137.6" x2="574" y1="347.5" y2="347.5" class="net_10 width_1" style="stroke-width: 1"/><line x1="489" x2="530" y1="265" y2="265" class="net_21 width_1" style="stroke-width: 1"/><line x1="530" x2="530" y1="265" y2="367.5" class="net_21 width_1" style="stroke-width: 1"/><line x1="530" x2="574" y1="367.5" y2="367.5" class="net_21 width_1" style="stroke-width: 1"/><line x1="794" x2="868" y1="392" y2="392" class="net_11,12,13,14 width_4" style="stroke-width: 2"/><line x1="247" x2="298" y1="160" y2="160" class="net_15 width_1" style="stroke-width: 1"/><line x1="298" x2="298" y1="160" y2="31.5" class="net_15 width_1" style="stroke-width: 1"/><line x1="298" x2="646" y1="31.5" y2="31.5" class="net_15 width_1" style="stroke-width: 1"/><line x1="646" x2="646" y1="31.5" y2="22.5" class="net_15 width_1" style="stroke-width: 1"/><line x1="646" x2="678" y1="22.5" y2="22.5" class="net_15 width_1" style="stroke-width: 1"/><line x1="368" x2="419" y1="222.5" y2="222.5" class="net_16 width_1" style="stroke-width: 1"/><line x1="419" x2="419" y1="222.5" y2="42.5" class="net_16 width_1" style="stroke-width: 1"/><line x1="419" x2="678" y1="42.5" y2="42.5" class="net_16 width_1" style="stroke-width: 1"/><line x1="489" x2="646" y1="285" y2="285" class="net_17 width_1" style="stroke-width: 1"/><line x1="646" x2="646" y1="285" y2="62.5" class="net_17 width_1" style="stroke-width: 1"/><line x1="646" x2="678" y1="62.5" y2="62.5" class="net_17 width_1" style="stroke-width: 1"/><line x1="605" x2="678.5" y1="347.5" y2="347.5" class="net_18 width_1" style="stroke-width: 1"/><line x1="678.5" x2="678.5" y1="347.5" y2="83" class="net_18 width_1" style="stroke-width: 1"/><line x1="42" x2="132.6" y1="65.5" y2="65.5" class="net_3,4,5,6 width_4" style="stroke-width: 2"/><line x1="42" x2="132.6" y1="297.5" y2="297.5" class="net_7,8,9,10 width_4" style="stroke-width: 2"/><rect x="720" y="27.5" width="16" height="9" class="net_15,16,17,18 width_4 busLabel_4" style="fill: white; stroke: none"/><text x="719" y="35.5" class="net_15,16,17,18 width_4 busLabel_4">/4/</text><rect x="830" y="387" width="16" height="9" class="net_11,12,13,14 width_4 busLabel_4" style="fill: white; stroke: none"/><text x="829" y="395" class="net_11,12,13,14 width_4 busLabel_4">/4/</text><rect x="78" y="60.5" width="16" height="9" class="net_3,4,5,6 width_4 busLabel_4" style="fill: white; stroke: none"/><text x="77" y="68.5" class="net_3,4,5,6 width_4 busLabel_4">/4/</text><rect x="78" y="292.5" width="16" height="9" class="net_7,8,9,10 width_4 busLabel_4" style="fill: white; stroke: none"/><text x="77" y="300.5" class="net_7,8,9,10 width_4 busLabel_4">/4/</text></svg>