<svg xmlns="http://www.w3.org/2000/svg" xmlns:xlink="http://www.w3.org/1999/xlink" xmlns:s="https://github.com/nturley/netlistsvg" width="429" height="342">
  <style>svg {
    stroke:#000;
    fill:none;
  }
  text {
    fill:#000;
    stroke:none;
    font-size:10px;
    font-weight: bold;
    font-family: "Courier New", monospace;
  }
  .nodelabel {
    text-anchor: middle;
  }
  .inputPortLabel {
    text-anchor: end;
  }
  .splitjoinBody {
    fill:#000;
  }</style>
  <g s:type="mux" transform="translate(208.66666666666666,80.5)" s:width="20" s:height="40" id="cell_\10">
    <s:alias val="$pmux"/>
    <s:alias val="$mux"/>
    <s:alias val="$_MUX_"/>
    <path d="M0,0 L20,10 L20,30 L0,40 Z" class="cell_\10"/>
    <g s:x="0" s:y="10" s:pid="A"/>
    <g s:x="0" s:y="30" s:pid="B"/>
    <g s:x="10" s:y="35" s:pid="S"/>
    <g s:x="20" s:y="20" s:pid="Y"/>
  </g>
  <g s:type="add" transform="translate(78.66666666666667,88)" s:width="25" s:height="25" id="cell_\11">
    <s:alias val="$add"/>
    <circle r="12.5" cx="12.5" cy="12.5" class="cell_\11"/>
    <line x1="7.5" x2="17.5" y1="12.5" y2="12.5" class="cell_\11"/>
    <line x1="12.5" x2="12.5" y1="7.5" y2="17.5" class="cell_\11"/>
    <g s:x="3" s:y="5" s:pid="A"/>
    <g s:x="3" s:y="20" s:pid="B"/>
    <g s:x="25" s:y="12.5" s:pid="Y"/>
  </g>
  <g s:type="eq" transform="translate(78.66666666666667,203)" s:width="25" s:height="25" id="cell_\13">
    <s:alias val="$eq"/>
    <circle r="12.5" cx="12.5" cy="12.5" class="cell_\13"/>
    <line x1="7.5" x2="17.5" y1="10" y2="10" class="cell_\13"/>
    <line x1="7.5" x2="17.5" y1="15" y2="15" class="cell_\13"/>
    <g s:x="3" s:y="5" s:pid="A"/>
    <g s:x="3" s:y="20" s:pid="B"/>
    <g s:x="25" s:y="12.5" s:pid="Y"/>
  </g>
  <g s:type="mux" transform="translate(145.33333333333334,70.5)" s:width="20" s:height="40" id="cell_\14">
    <s:alias val="$pmux"/>
    <s:alias val="$mux"/>
    <s:alias val="$_MUX_"/>
    <path d="M0,0 L20,10 L20,30 L0,40 Z" class="cell_\14"/>
    <g s:x="0" s:y="10" s:pid="A"/>
    <g s:x="0" s:y="30" s:pid="B"/>
    <g s:x="10" s:y="35" s:pid="S"/>
    <g s:x="20" s:y="20" s:pid="Y"/>
  </g>
  <g s:type="not" transform="translate(267,228)" s:width="30" s:height="20" id="cell_\2">
    <s:alias val="$_NOT_"/>
    <s:alias val="$not"/>
    <s:alias val="$logic_not"/>
    <path d="M0,0 L0,20 L20,10 Z" class="cell_\2"/>
    <circle cx="23" cy="10" r="3" class="cell_\2"/>
    <g s:x="0" s:y="10" s:pid="A"/>
    <g s:x="25" s:y="10" s:pid="Y"/>
  </g>
  <g s:type="mux" transform="translate(332,138)" s:width="20" s:height="40" id="cell_\3">
    <s:alias val="$pmux"/>
    <s:alias val="$mux"/>
    <s:alias val="$_MUX_"/>
    <path d="M0,0 L20,10 L20,30 L0,40 Z" class="cell_\3"/>
    <g s:x="0" s:y="10" s:pid="A"/>
    <g s:x="0" s:y="30" s:pid="B"/>
    <g s:x="10" s:y="35" s:pid="S"/>
    <g s:x="20" s:y="20" s:pid="Y"/>
  </g>
  <g s:type="eq" transform="translate(207,300)" s:width="25" s:height="25" id="cell_\5">
    <s:alias val="$eq"/>
    <circle r="12.5" cx="12.5" cy="12.5" class="cell_\5"/>
    <line x1="7.5" x2="17.5" y1="10" y2="10" class="cell_\5"/>
    <line x1="7.5" x2="17.5" y1="15" y2="15" class="cell_\5"/>
    <g s:x="3" s:y="5" s:pid="A"/>
    <g s:x="3" s:y="20" s:pid="B"/>
    <g s:x="25" s:y="12.5" s:pid="Y"/>
  </g>
  <g s:type="mux" transform="translate(270.3333333333333,128)" s:width="20" s:height="40" id="cell_\6">
    <s:alias val="$pmux"/>
    <s:alias val="$mux"/>
    <s:alias val="$_MUX_"/>
    <path d="M0,0 L20,10 L20,30 L0,40 Z" class="cell_\6"/>
    <g s:x="0" s:y="10" s:pid="A"/>
    <g s:x="0" s:y="30" s:pid="B"/>
    <g s:x="10" s:y="35" s:pid="S"/>
    <g s:x="20" s:y="20" s:pid="Y"/>
  </g>
  <g s:type="eq" transform="translate(143.66666666666666,249)" s:width="25" s:height="25" id="cell_\9">
    <s:alias val="$eq"/>
    <circle r="12.5" cx="12.5" cy="12.5" class="cell_\9"/>
    <line x1="7.5" x2="17.5" y1="10" y2="10" class="cell_\9"/>
    <line x1="7.5" x2="17.5" y1="15" y2="15" class="cell_\9"/>
    <g s:x="3" s:y="5" s:pid="A"/>
    <g s:x="3" s:y="20" s:pid="B"/>
    <g s:x="25" s:y="12.5" s:pid="Y"/>
  </g>
  <g s:type="inputExt" transform="translate(12,83)" s:width="30" s:height="20" id="cell_a">
    <text x="15" y="-4" class="nodelabel cell_a" s:attribute="ref">a</text>
    <s:alias val="$_inputExt_"/>
    <path d="M0,0 L0,20 L15,20 L30,10 L15,0 Z" class="cell_a"/>
    <g s:x="28" s:y="10" s:pid="Y"/>
  </g>
  <g s:type="inputExt" transform="translate(12,148)" s:width="30" s:height="20" id="cell_b">
    <text x="15" y="-4" class="nodelabel cell_b" s:attribute="ref">b</text>
    <s:alias val="$_inputExt_"/>
    <path d="M0,0 L0,20 L15,20 L30,10 L15,0 Z" class="cell_b"/>
    <g s:x="28" s:y="10" s:pid="Y"/>
  </g>
  <g s:type="inputExt" transform="translate(12,279)" s:width="30" s:height="20" id="cell_s">
    <text x="15" y="-4" class="nodelabel cell_s" s:attribute="ref">s</text>
    <s:alias val="$_inputExt_"/>
    <path d="M0,0 L0,20 L15,20 L30,10 L15,0 Z" class="cell_s"/>
    <g s:x="28" s:y="10" s:pid="Y"/>
  </g>
  <g s:type="outputExt" transform="translate(387,148)" s:width="30" s:height="20" id="cell_y">
    <text x="15" y="-4" class="nodelabel cell_y" s:attribute="ref">y</text>
    <s:alias val="$_outputExt_"/>
    <path d="M30,0 L30,20 L15,20 L0,10 L15,0 Z" class="cell_y"/>
    <g s:x="0" s:y="10" s:pid="A"/>
  </g>
  <g s:type="constant" transform="translate(77,33)" s:width="30" s:height="20" id="cell_0000">
    <text x="15" y="-4" class="nodelabel cell_0000" s:attribute="ref">0x0</text>
    <s:alias val="$_constant_"/>
    <rect width="30" height="20" class="cell_0000"/>
    <g s:x="30" s:y="10" s:pid="Y"/>
  </g>
  <g s:type="constant" transform="translate(12,213)" s:width="30" s:height="20" id="cell_11">
    <text x="15" y="-4" class="nodelabel cell_11" s:attribute="ref">11</text>
    <s:alias val="$_constant_"/>
    <rect width="30" height="20" class="cell_11"/>
    <g s:x="30" s:y="10" s:pid="Y"/>
  </g>
  <g s:type="constant" transform="translate(142,310)" s:width="30" s:height="20" id="cell_1">
    <text x="15" y="-4" class="nodelabel cell_1" s:attribute="ref">1</text>
    <s:alias val="$_constant_"/>
    <rect width="30" height="20" class="cell_1"/>
    <g s:x="30" s:y="10" s:pid="Y"/>
  </g>
  <g s:type="constant" transform="translate(77,259)" s:width="30" s:height="20" id="cell_10">
    <text x="15" y="-4" class="nodelabel cell_10" s:attribute="ref">10</text>
    <s:alias val="$_constant_"/>
    <rect width="30" height="20" class="cell_10"/>
    <g s:x="30" s:y="10" s:pid="Y"/>
  </g>
  <line x1="165.33333333333334" x2="208.66666666666666" y1="90.5" y2="90.5" class="net_16,17,18,19"/>
  <line x1="107" x2="182" y1="43" y2="43" class="net_36,37,38,39"/>
  <line x1="182" x2="182" y1="43" y2="110.5" class="net_36,37,38,39"/>
  <line x1="182" x2="208.66666666666666" y1="110.5" y2="110.5" class="net_36,37,38,39"/>
  <line x1="107" x2="117" y1="43" y2="43" class="net_36,37,38,39"/>
  <line x1="117" x2="117" y1="43" y2="80.5" class="net_36,37,38,39"/>
  <circle cx="117" cy="43" r="2" style="fill:#000" class="net_36,37,38,39"/>
  <line x1="117" x2="145.33333333333334" y1="80.5" y2="80.5" class="net_36,37,38,39"/>
  <line x1="168.66666666666666" x2="218.66666666666666" y1="261.5" y2="261.5" class="net_20"/>
  <line x1="218.66666666666666" x2="218.66666666666666" y1="261.5" y2="115.5" class="net_20"/>
  <line x1="40" x2="81.66666666666667" y1="93" y2="93" class="net_2,3,4,5"/>
  <line x1="40" x2="52" y1="93" y2="93" class="net_2,3,4,5"/>
  <line x1="52" x2="52" y1="93" y2="12" class="net_2,3,4,5"/>
  <line x1="52" x2="307" y1="12" y2="12" class="net_2,3,4,5"/>
  <line x1="307" x2="307" y1="12" y2="168" class="net_2,3,4,5"/>
  <circle cx="52" cy="93" r="2" style="fill:#000" class="net_2,3,4,5"/>
  <line x1="307" x2="332" y1="168" y2="168" class="net_2,3,4,5"/>
  <line x1="40" x2="52" y1="158" y2="158" class="net_6,7,8,9"/>
  <line x1="52" x2="52" y1="158" y2="108" class="net_6,7,8,9"/>
  <circle cx="52" cy="158" r="2" style="fill:#000" class="net_6,7,8,9"/>
  <line x1="52" x2="81.66666666666667" y1="108" y2="108" class="net_6,7,8,9"/>
  <line x1="40" x2="270.3333333333333" y1="158" y2="158" class="net_6,7,8,9"/>
  <line x1="40" x2="52" y1="289" y2="289" class="net_10,11"/>
  <line x1="52" x2="52" y1="289" y2="208" class="net_10,11"/>
  <circle cx="52" cy="289" r="2" style="fill:#000" class="net_10,11"/>
  <line x1="52" x2="81.66666666666667" y1="208" y2="208" class="net_10,11"/>
  <line x1="40" x2="52" y1="289" y2="289" class="net_10,11"/>
  <line x1="52" x2="52" y1="289" y2="238" class="net_10,11"/>
  <circle cx="52" cy="238" r="2" style="fill:#000" class="net_10,11"/>
  <line x1="52" x2="267" y1="238" y2="238" class="net_10,11"/>
  <line x1="40" x2="182" y1="289" y2="289" class="net_10,11"/>
  <line x1="182" x2="182" y1="289" y2="305" class="net_10,11"/>
  <line x1="182" x2="210" y1="305" y2="305" class="net_10,11"/>
  <line x1="40" x2="52" y1="289" y2="289" class="net_10,11"/>
  <line x1="52" x2="52" y1="289" y2="238" class="net_10,11"/>
  <line x1="52" x2="117" y1="238" y2="238" class="net_10,11"/>
  <line x1="117" x2="117" y1="238" y2="254" class="net_10,11"/>
  <circle cx="117" cy="238" r="2" style="fill:#000" class="net_10,11"/>
  <line x1="117" x2="146.66666666666666" y1="254" y2="254" class="net_10,11"/>
  <line x1="42" x2="81.66666666666667" y1="223" y2="223" class="net_40,41"/>
  <line x1="103.66666666666667" x2="145.33333333333334" y1="100.5" y2="100.5" class="net_25,26,27,28"/>
  <line x1="103.66666666666667" x2="155.33333333333334" y1="215.5" y2="215.5" class="net_29"/>
  <line x1="155.33333333333334" x2="155.33333333333334" y1="215.5" y2="105.5" class="net_29"/>
  <line x1="290.3333333333333" x2="332" y1="148" y2="148" class="net_31,32,33,34"/>
  <line x1="292" x2="342" y1="238" y2="238" class="net_30"/>
  <line x1="342" x2="342" y1="238" y2="173" class="net_30"/>
  <line x1="172" x2="210" y1="320" y2="320" class="net_46"/>
  <line x1="228.66666666666666" x2="242" y1="100.5" y2="100.5" class="net_21,22,23,24"/>
  <line x1="242" x2="242" y1="100.5" y2="138" class="net_21,22,23,24"/>
  <line x1="242" x2="270.3333333333333" y1="138" y2="138" class="net_21,22,23,24"/>
  <line x1="232" x2="242" y1="312.5" y2="312.5" class="net_35"/>
  <line x1="242" x2="242" y1="312.5" y2="218" class="net_35"/>
  <line x1="242" x2="280.3333333333333" y1="218" y2="218" class="net_35"/>
  <line x1="280.3333333333333" x2="280.3333333333333" y1="218" y2="163" class="net_35"/>
  <line x1="107" x2="146.66666666666666" y1="269" y2="269" class="net_47,48"/>
  <line x1="352" x2="387" y1="158" y2="158" class="net_12,13,14,15"/>
</svg>
